<svg id="svg-central-logo" xmlns="http://www.w3.org/2000/svg" viewBox="0 0 112 114"><style>.st0{fill:#fff}.st1{fill:#171a29}.st2{fill:#da2f39}.st3{fill:#2d5293}</style><title>Centrale Canine</title><desc>Centrale Canine Logo.</desc><g id="logo" transform="translate(95)"><path id="Rectangle" class="st0" d="M-95 0H17v114H-95z"/><path id="Fill-1" class="st1" d="M-53.7 75.5l-2.9-3.8s-.3-.4-.4-.4c-.1 0-.1.1-.1.5v8c0 1.8 1.7 1.1 1.7 1.6 0 .1 0 .3-.2.3-.5 0-1-.1-2-.1-.7 0-1.7.1-1.8.1-.2 0-.3-.1-.3-.2 0-.7 1.7.2 1.7-2.6v-7.3c0-4.1-2.4-2.9-2.4-3.7 0-.1.2-.2.3-.2.3 0 .6.1.9.1.3 0 .6-.1.9-.1.2 0 .4.3.5.5l4.1 5 4.6 5.4.2.2s.1-.1.1-.2v-8.2c0-2.6-2.2-1.8-2.2-2.5 0-.1.1-.2.2-.2.6 0 1.2.1 1.8.1.7 0 1.5-.1 2-.1.1 0 .4.1.4.2 0 .5-1.4.2-1.4 1.6v11.4c0 .6 0 .8-.2.8-.1 0-.3-.1-.7-.6l-4.8-5.6"/><path id="Fill-2" class="st1" d="M-41 69.8c0-.7 0-.9-.3-.9h-2.5c-1.2 0-1.3.3-1.6 1.4-.1.2-.1.5-.3.5-.1 0-.2-.1-.2-.2l.2-1.9c0-.2 0-.8.4-.8 1.5 0 2.4.1 5 .1 3.6 0 4.8-.1 5.2-.1.5 0 .5.1.6.6l.1 1.6c0 .2 0 .4-.2.4-.7 0 .3-1.5-1.7-1.5h-2.2c-.9 0-.8-.1-.8 1v10c0 1.7 1.6 1 1.6 1.6 0 .1 0 .2-.2.2-.5 0-1-.1-1.6-.1-2.2 0-2.6.1-2.7.1-.2 0-.2-.1-.2-.3 0-.5 1.5-.3 1.5-1.5V69.8"/><path id="Fill-3" class="st1" d="M-63.3 99.1c-.1.3 0 .4.3.4h3.9c.4 0 .4-.1.3-.4l-1.9-4.7c-.1-.2-.2-.2-.3 0l-2.3 4.7zm5.3 2c-.2-.5-.3-.7-.9-.7h-4.3c-.4 0-.7 0-.9.4l-1.3 2.8c-.1.1-.1.4-.1.7 0 1.4 1.4.8 1.4 1.3 0 .4-.3.3-.5.3-.5 0-1.1-.1-1.6-.1s-1.1.1-1.6.1c-.1 0-.2-.1-.2-.2 0-.4.9-.1 1.4-1.2l4.7-10c1.2-2.5 1.2-2.8 1.5-2.8.2 0 .4.6.4.7l4.1 10.1c.3.7.5 1.6 1 2.2.6.9 1.7.5 1.7 1 0 .2-.1.2-.3.2-.8 0-1.6-.1-2.4-.1-.5 0-1.1.1-1.6.1-.1 0-.4 0-.4-.2 0-.5 1.2-.3 1.2-1 0-.4-.4-1.3-.6-1.9l-.7-1.7z"/><path id="Fill-4" class="st1" d="M-48.2 95.7c0-4.1-2.4-2.9-2.4-3.7 0-.1.2-.2.3-.2.3 0 .6.1.9.1.3 0 .6-.1.9-.1.2 0 .4.3.5.5l9.4 10.4.2.2s.1-.1.1-.2v-8.2c0-2.6-2.2-1.8-2.2-2.5 0-.1.1-.2.2-.2.6 0 1.2.1 1.8.1.7 0 1.5-.1 2-.1.1 0 .2.1.2.2 0 .5-1.2.2-1.2 1.6V105c0 .6 0 .8-.2.8-.1 0-.3-.1-.7-.5l-8.4-9.5s-.3-.4-.4-.4c-.1 0-.1.1-.1.5v8c0 1.8 1.7 1.1 1.7 1.6 0 .1 0 .3-.2.3-.5 0-1-.1-2-.1-.7 0-1.7.1-1.8.1-.2 0-.3-.1-.3-.2 0-.7 1.7.2 1.7-2.6v-7.3"/><path id="Fill-5" class="st1" d="M-27.8 93.6c0-1.4-1.6-1-1.6-1.5 0-.2 0-.2.2-.2.7 0 1.4.1 2.2.1.6 0 1.2-.1 1.8-.1.3 0 .4 0 .4.2 0 .5-1.4 0-1.4 1.5v10.6c0 1.3 1.7.9 1.7 1.5 0 .1-.1.2-.4.2-.5 0-1.3-.1-2.1-.1-1.2 0-1.6.1-1.9.1-.4 0-.4-.1-.4-.3 0-.6 1.5.1 1.5-1.9V93.6"/><path id="Fill-6" class="st1" d="M-17.2 95.7c0-4.1-2.4-2.9-2.4-3.7 0-.1.2-.2.3-.2.3 0 .6.1.9.1.3 0 .6-.1.9-.1.2 0 .4.3.5.5l9.4 10.4.2.2s.1-.1.1-.2v-8.2c0-2.6-2.2-1.8-2.2-2.5 0-.1.1-.2.2-.2.6 0 1.2.1 1.8.1.7 0 1.5-.1 2-.1.1 0 .2.1.2.2 0 .5-1.2.2-1.2 1.6V105c0 .6 0 .8-.2.8-.1 0-.3-.1-.7-.5l-8.4-9.5s-.3-.4-.4-.4c-.1 0-.1.1-.1.5v8c0 1.8 1.7 1.1 1.7 1.6 0 .1 0 .3-.2.3-.5 0-1-.1-2-.1-.7 0-1.7.1-1.8.1-.2 0-.3-.1-.3-.2 0-.7 1.7.2 1.7-2.6v-7.3"/><path id="Fill-7" class="st1" d="M2.9 97.5c0 .7 0 .7.7.7h2.1c2 0 1.5-1.6 2-1.6.2 0 .2.2.2.4v3.6c0 .2-.1.3-.2.3-.6 0 .1-1.7-1.6-1.7H3.2c-.4 0-.4.3-.4.6v3.6c0 1.2-.2 1.6 1.5 1.6 4.5 0 5.2-2 5.5-2 .1 0 .2.2.2.2 0 .7-.5 1.4-1 1.9-.6.7-1.1.7-1.9.7-1.5 0-3-.1-4.5-.1-.8 0-1.6.1-2.4.1-.2 0-.3 0-.3-.2s.2-.2.9-.5c.5-.2.5-.8.5-1.7v-9c0-.9 0-1.8-1.1-2-.2 0-.6-.1-.6-.3 0-.2.1-.2.7-.2 3.7 0 4.7.1 5.6.1.4 0 2.2-.1 2.8-.1.2 0 .2.2.2.4 0 2.2-.3 2.3-.4 2.3-.5 0-.2-.9-.5-1.4-.5-.7-2.5-.6-3.3-.6-1.9 0-1.8-.1-1.8 1.2v3.7"/><path id="Fill-8" class="st1" d="M4.9 80.9c-1.4 0-1.4-.3-1.4-1.6v-3.6c0-.5 0-.6.4-.6h2.3c1.6 0 1 1.7 1.6 1.7.1 0 .2-.1.2-.3v-3.6c0-.2-.1-.4-.2-.4-.5 0 .1 1.6-2 1.6H4.2c-.7 0-.7 0-.7-.7v-3.7c0-1.2 0-1.2 1.3-1.2.8 0 2.8-.1 3.3.6.3.5 0 1.4.5 1.4.1 0 .4-.2.4-2.3 0-.2 0-.4-.2-.4-.6 0-2.4.1-2.8.1-.8 0-1.6-.1-4.9-.1-.6 0-.7.1-.7.2 0 .2.4.3.6.3 1.1.2 1.1 1.1 1.1 2v9c0 .9 0 1.5-.5 1.7-.6.3-.8.3-.9.5 0 .2.1.2.3.2.8 0 1.6-.1 2.4-.1 1.3 0 2.5.1 3.9.1.9 0 1.3 0 1.9-.7.5-.5 1-1.2 1-1.9 0 0 0-.2-.2-.2-.4 0-.9 1.9-5.1 2"/><path id="Fill-9" class="st1" d="M.9 78.9c-.2 0-.7 1.9-4.9 2-1.5 0-1.4-.5-1.4-1.6v-9.5c0-1.7 1.4-1.2 1.4-1.7 0-.2-.1-.3-.4-.3-.3 0-.8.1-1.9.1-1 0-1.6-.1-2-.1-.3 0-.4 0-.4.3 0 .4 1.6.3 1.6 1.3v10c0 .9 0 1.5-.5 1.7-.6.3-.8.3-.9.5 0 .2.1.2.3.2.8 0 1.6-.1 2.4-.1 1.3 0 2.5.1 3.9.1.9 0 1.3 0 1.9-.7.5-.5 1-1.2 1-1.9.1-.1.1-.3-.1-.3"/><path id="Fill-10" class="st1" d="M-14.2 75.4h-3.3c-.3 0-.4-.1-.3-.4l2.1-4.9c0-.1.1-.1.1 0l1.7 4.9c.1.3.1.4-.3.4zm-14.7-.9h-.4c-1 0-1.3 0-1.3-.3v-5c0-.7.2-.7 1-.7h.1c1.9 0 3.3.8 3.3 3.2.1 2.4-1.8 2.8-2.7 2.8zm18.8 6.1c-.5-.7-.7-1.5-1-2.2l-3.7-10.1c-.1-.2-.2-.7-.4-.7-.1 0-.2.3-.4.7C-16.9 71-21 80.4-21 80.4c-.2.4-.5.7-.8.8 0 0-.3.1-.7 0-.4-.2-.9-.6-1.5-1.5l-3.3-5c1.4-.6 2.5-1.9 2.5-3.4 0-3.8-4.3-3.4-4.6-3.4h-.6c-.7 0-1.4.1-2.2.1-1 0-.9-.1-1.3-.1-.2 0-.4.1-.4.2 0 .7 1.7-.1 1.7 1.7v10c0 1.5-1.4 1.2-1.4 1.7 0 .1.1.2.2.2.7 0 1.5-.1 2.2-.1 1.6 0 2.1.1 2.3.1.2 0 .3 0 .3-.2 0-.7-2-.1-2-1.7v-4.1c0-.2 0-.6.5-.6h.8c.8 0 .7 0 1.4 1l2.2 3.4c.7 1.1 1.5 2.1 2.9 2.1h.1c.5 0 1.5-.1 2-.1s1.1.1 1.6.1c.3 0 .5.1.5-.3 0-.5-1.4.1-1.4-1.3 0-.3.1-.6.1-.7l1.3-2.8c.2-.4.5-.4.9-.4h3.7c.5 0 .5.3.7.7l.6 1.6c.2.5.6 1.4.6 1.9 0 .7-1.2.5-1.2 1 0 .2.3.2.4.2.5 0 1.1-.1 1.6-.1.8 0 1.6.1 2.4.1.1 0 .3 0 .3-.2.2-.2-.9.2-1.5-.7z"/><path id="Fill-11" class="st1" d="M-65.6 81c-1.4 0-1.4-.3-1.4-1.6v-3.6c0-.5 0-.6.4-.6h2.3c1.6 0 1 1.7 1.6 1.7.1 0 .2-.1.2-.3V73c0-.2-.1-.4-.2-.4-.5 0 .1 1.6-2 1.6h-1.5c-.7 0-.7 0-.7-.7v-3.7c0-1.2 0-1.2 1.3-1.2.8 0 2.8-.1 3.3.6.3.5 0 1.4.5 1.4.1 0 .4-.2.4-2.3 0-.2 0-.4-.2-.4-.6 0-2.4.1-2.8.1-.8 0-1.6-.1-4.9-.1-.6 0-.7.1-.7.2 0 .2.4.3.6.3 1.1.2 1.1 1.1 1.1 2v9c0 .9 0 1.5-.5 1.7-.6.3-.8.3-.9.5 0 .2.1.2.3.2.8 0 1.6-.1 2.4-.1 1.3 0 2.5.1 3.9.1.9 0 1.3 0 1.9-.7.5-.5 1-1.2 1-1.9 0 0 0-.2-.2-.2-.5 0-1 1.9-5.2 2"/><path id="Fill-12" class="st1" d="M-79.3 64.6c4.5 0 5.8 1.9 6.5 1.9.2 0 .3-.2.6-.2s.3.4.3 2c0 1.3.3 2.1-.1 2.1-.3 0-.5-.6-.6-.8-1.5-2.6-3.2-4.2-6.3-4.2-4.7 0-7 3.1-7 7.6 0 4.2 2.4 8.4 7 8.4 3.8 0 6.1-2.4 6.5-3.5 0-.2.2-.3.3-.3.1 0 .2.1.2.3l-.6 2.4c0 .1-1.7 1.9-7.2 1.9-4.9 0-8.5-3.4-8.5-8.4.2-5.1 3.8-9.2 8.9-9.2"/><path id="Fill-13" class="st1" d="M-79.3 88.4c4.5 0 5.8 1.9 6.5 1.9.2 0 .3-.2.6-.2s.3.4.3 2c0 1.3.3 2.1-.1 2.1-.3 0-.5-.6-.6-.8-1.5-2.6-3.2-4.2-6.3-4.2-4.7 0-7 3.1-7 7.6 0 4.2 2.4 8.4 7 8.4 3.8 0 6.1-2.4 6.5-3.5 0-.2.2-.3.3-.3.1 0 .2.1.2.3l-.6 2.4c0 .1-1.7 1.9-7.2 1.9-4.9 0-8.5-3.4-8.5-8.4.2-5.1 3.8-9.2 8.9-9.2"/><path id="bottom" class="st2" d="M8.9 57.5V9.1h-24.1c1.6.2 4.6.7 6.1 2.6 2 2.6-.2 2.3 3.4 4.7l1.8 1.2s.5.1.5.7c0 .5-.4.7-.6 1.3-.2.4-.2 2.8-5 3-.9 0-2.1-.2-3.2-.5-1.9-.5-2.1-.3-2.3.1 0 0-1.8 3.9-3.6 6.1C-5.8 30 .3 35 2.6 37.2c.7.7 1 1.2 1 1.2s-16.5-7.9-47 .7c-6.9 2-12.4 4.4-16.9 6.8-3.1 1.7-6 3.5-8.7 5.6-3 2.3-4.9 4.4-6.1 5.8h84"/><path id="top" class="st3" d="M-75.3 57.5c.5-2 1.5-5 3.3-8.1 5.8-9.4 13.9-12.8 13.9-12.8s-.9.2-2.2.5c-.2 0-10.6 2-17.7-3.2-.5-.4-1-.8-1.4-1.2-2.2-2.2-3.7-5.2-3.7-8.6 0-4.9 2.9-9 7-11-2.5 1.8-5.2 7.5-1.6 13.9 2.5 4.4 7.3 6 10.5 6.5.7.1 1.5.2 2.3.2h1.1c25.9-.1 42.6-22.3 42.6-22.3 1.6-2.1 2.3-2 4-2.2h-70.2v48.4h12.1"/></g></svg>